<svg width="34" height="30" viewBox="0 0 34 30" fill="none" xmlns="http://www.w3.org/2000/svg">
<path d="M9.43626 22.1053H3.5C2.39543 22.1053 1.5 21.2098 1.5 20.1053V9.89474C1.5 8.79017 2.39543 7.89474 3.5 7.89474H9.43626C9.91858 7.89474 10.3847 7.72044 10.7486 7.40395L15.9508 2.88031C17.2453 1.7547 19.2632 2.67412 19.2632 4.38952V25.6105C19.2632 27.3259 17.2453 28.2453 15.9508 27.1197L10.7486 22.5961C10.3847 22.2796 9.91858 22.1053 9.43626 22.1053Z" stroke="#ABABAB" stroke-width="3"/>
<path d="M25.5 10C28.1775 13.6475 28.1559 15.3193 25.5 19" stroke="#ABABAB" stroke-width="3" stroke-linecap="round"/>
<path d="M29.5 7C33.5162 13.0792 33.4838 15.8654 29.5 22" stroke="#ABABAB" stroke-width="3" stroke-linecap="round"/>
</svg>
